<svg width="156" height="40" viewBox="0 0 156 40" fill="none" xmlns="http://www.w3.org/2000/svg">
<g clip-path="url(#clip0_2_417)">
<path d="M39.9852 20.7682C39.8991 23.2888 39.3393 25.6802 38.392 27.8561C38.2843 28.1146 38.1551 28.3947 38.0259 28.6532C36.9925 30.8291 35.5499 32.7896 33.8489 34.4269C30.0811 38.0463 24.8706 40.2007 19.2295 39.9852C18.6482 39.9637 18.0668 39.9206 17.507 39.8344C13.1147 39.2958 9.19614 37.3353 6.18182 34.4485C4.43782 32.7896 2.99525 30.8076 1.96177 28.6317C1.83259 28.3731 1.72493 28.1146 1.59575 27.8345C1.22972 26.9943 0.928292 26.111 0.691453 25.2277C0.62686 25.0123 0.583798 24.7969 0.519206 24.5599C0.153182 23.0303 -0.0190652 21.3714 0.00246562 19.691C0.00246562 19.5402 0.00246562 19.3894 0.0239965 19.2386C0.239305 13.8526 2.54311 9.04838 6.16029 5.57983C7.06458 4.71808 8.03347 3.94251 9.08848 3.25311C11.6076 1.59424 14.5573 0.495507 17.7008 0.129263C18.3467 0.0646313 19.0142 0.0215438 19.6817 0C20.0477 0 20.3922 0 20.7582 0.0215438C20.8659 0.0215438 20.9735 0.0215438 21.0812 0.0430875C22.5022 0.129263 23.9017 0.3447 25.2151 0.710944C28.7677 1.68041 31.9327 3.59781 34.4088 6.16152C34.4303 6.18306 34.4303 6.18306 34.4518 6.2046C38.069 9.97476 40.2005 15.1453 39.9852 20.7682Z" fill="#E93842"/>
<path d="M21.102 0.0650602C20.9944 0.0650602 20.8867 0.0435164 20.7791 0.0435164C20.413 0.0219727 20.047 0.0219727 19.7025 0.0219727C19.0351 0.0219727 18.3891 0.0650602 17.7217 0.151235C14.5566 0.517479 11.6069 1.61621 9.06628 3.27508C8.01127 3.96448 7.04238 4.74006 6.13808 5.60181C2.54243 9.07035 0.217103 13.8746 0.0233251 19.2606C0.0233251 19.4114 0.0233251 19.5622 0.00179424 19.713C-0.0197366 21.3934 0.15251 23.0307 0.518534 24.6034C4.93236 24.8404 9.45383 23.6339 13.3079 20.8548C13.437 20.7686 13.5447 20.6824 13.6739 20.5963C13.76 20.5316 13.8461 20.467 13.9322 20.4024C15.3533 19.2821 16.6021 18.011 17.6356 16.6322C18.3676 15.6627 19.0135 14.6071 19.5303 13.5299C19.5303 13.5084 19.5518 13.5084 19.5518 13.4868C19.5733 13.4437 19.5949 13.3791 19.6164 13.336C19.6164 13.3145 19.6379 13.2929 19.6379 13.2714C19.7025 13.1421 19.7456 13.0129 19.8102 12.9051C19.8317 12.8405 19.8748 12.7759 19.8963 12.7112C19.9394 12.6251 19.9824 12.5174 20.0255 12.4312C20.047 12.3665 20.0901 12.3019 20.1116 12.2373C20.1331 12.1942 20.1547 12.1511 20.1547 12.108C20.1762 12.0649 20.1977 12.0218 20.1977 11.9788C20.2408 11.8926 20.2623 11.8064 20.3054 11.6987C20.3269 11.6556 20.3269 11.6341 20.3484 11.591C20.37 11.5479 20.3915 11.5048 20.3915 11.4402C20.4561 11.2678 20.4992 11.117 20.5637 10.9447C20.5853 10.9016 20.5853 10.8585 20.6068 10.7939C20.6714 10.6215 20.7145 10.4492 20.7575 10.2768C20.7791 10.2337 20.7791 10.1691 20.8006 10.126C20.8652 9.91056 20.9082 9.71667 20.9728 9.50123C20.9944 9.4366 21.0159 9.35042 21.0374 9.28579C21.059 9.2427 21.059 9.17807 21.0805 9.13498C21.102 9.07035 21.102 9.00572 21.1235 8.94109C21.1451 8.87646 21.1451 8.83337 21.1666 8.76874C21.2312 8.44558 21.2958 8.12243 21.3604 7.79927C21.3819 7.7131 21.3819 7.62692 21.4035 7.54075C21.425 7.34685 21.4465 7.1745 21.4896 6.98061C21.4896 6.95906 21.4896 6.95906 21.4896 6.93752C21.4896 6.89443 21.4896 6.85135 21.5111 6.80826C21.5326 6.72208 21.5326 6.61436 21.5326 6.52819C21.7479 4.43844 21.5972 2.21944 21.102 0.0650602Z" fill="#FDCE4D"/>
<path d="M30.8554 19.82L21.2311 11.5041L20.0038 10.4485L18.7766 11.5041L9.15227 19.82C8.85084 20.0785 9.04462 20.5741 9.43217 20.5741H11.1762C11.413 20.5741 11.6068 20.7679 11.6068 21.0049V29.5793H20.0038H28.4008V20.9834C28.4008 20.7464 28.5946 20.5525 28.8315 20.5525H30.5755C30.963 20.5741 31.1568 20.0785 30.8554 19.82ZM23.2765 26.4986C23.2765 26.8648 22.9751 27.1664 22.609 27.1664H20.0038H17.3771C17.011 27.1664 16.7096 26.8648 16.7096 26.4986V25.7015C16.7096 25.3352 17.011 25.0336 17.3771 25.0336H20.0038H22.6306C22.9966 25.0336 23.298 25.3352 23.298 25.7015V26.4986H23.2765ZM23.2765 21.8667C23.2765 22.2329 22.9751 22.5345 22.609 22.5345H20.0038H17.3771C17.011 22.5345 16.7096 22.2329 16.7096 21.8667V21.0696C16.7096 20.7033 17.011 20.4017 17.3771 20.4017H20.0038H22.6306C22.9966 20.4017 23.298 20.7033 23.298 21.0696V21.8667H23.2765Z" fill="white"/>
</g>
<path d="M61.89 7.362V5.4H52.692V18H55.032V13.176H61.116V11.196H55.032V7.362H61.89ZM64.8952 6.804C65.7412 6.804 66.3352 6.192 66.3352 5.4C66.3352 4.662 65.7232 4.104 64.8952 4.104C64.0672 4.104 63.4552 4.698 63.4552 5.454C63.4552 6.21 64.0672 6.804 64.8952 6.804ZM63.7612 18H66.0112V8.388H63.7612V18ZM71.1063 9.792V8.388H68.9643V18H71.2143V13.338C71.2143 11.376 72.2943 10.368 74.0043 10.368C74.1663 10.368 74.3283 10.386 74.5263 10.422V8.28C72.9243 8.28 71.7543 8.784 71.1063 9.792ZM79.4401 18.126C82.1401 18.126 83.7961 16.956 83.7961 15.156C83.7961 11.394 77.8561 13.122 77.8561 11.178C77.8561 10.548 78.5041 10.098 79.8721 10.098C80.7901 10.098 81.7081 10.278 82.6261 10.818L83.4901 9.108C82.6261 8.586 81.1681 8.28 79.8901 8.28C77.2981 8.28 75.6601 9.468 75.6601 11.286C75.6601 15.12 81.6001 13.392 81.6001 15.228C81.6001 15.894 81.0061 16.29 79.5841 16.29C78.3781 16.29 77.0821 15.894 76.2361 15.336L75.3721 17.046C76.2361 17.658 77.8381 18.126 79.4401 18.126ZM90.8818 15.876C90.5398 16.146 90.0898 16.272 89.6218 16.272C88.7578 16.272 88.2898 15.768 88.2898 14.832V10.26H90.8638V8.46H88.2898V6.264H86.0398V8.46H84.4558V10.26H86.0398V14.886C86.0398 17.01 87.2458 18.126 89.3518 18.126C90.1618 18.126 90.9718 17.91 91.5118 17.478L90.8818 15.876ZM100.893 16.038V12.564H106.977V10.638H100.893V7.362H107.751V5.4H98.5533V18H108.003V16.038H100.893ZM113.278 18.126C115.978 18.126 117.634 16.956 117.634 15.156C117.634 11.394 111.694 13.122 111.694 11.178C111.694 10.548 112.342 10.098 113.71 10.098C114.628 10.098 115.546 10.278 116.464 10.818L117.328 9.108C116.464 8.586 115.006 8.28 113.728 8.28C111.136 8.28 109.498 9.468 109.498 11.286C109.498 15.12 115.438 13.392 115.438 15.228C115.438 15.894 114.844 16.29 113.422 16.29C112.216 16.29 110.92 15.894 110.074 15.336L109.21 17.046C110.074 17.658 111.676 18.126 113.278 18.126ZM124.72 15.876C124.378 16.146 123.928 16.272 123.46 16.272C122.596 16.272 122.128 15.768 122.128 14.832V10.26H124.702V8.46H122.128V6.264H119.878V8.46H118.294V10.26H119.878V14.886C119.878 17.01 121.084 18.126 123.19 18.126C124 18.126 124.81 17.91 125.35 17.478L124.72 15.876ZM130.873 8.28C129.325 8.28 127.831 8.676 126.805 9.468L127.687 11.106C128.407 10.512 129.523 10.152 130.603 10.152C132.205 10.152 132.997 10.926 132.997 12.24V12.384H130.513C127.597 12.384 126.517 13.644 126.517 15.246C126.517 16.92 127.903 18.126 130.099 18.126C131.539 18.126 132.583 17.658 133.123 16.83V18H135.247V12.366C135.247 9.594 133.645 8.28 130.873 8.28ZM130.567 16.488C129.415 16.488 128.731 15.966 128.731 15.156C128.731 14.454 129.145 13.878 130.675 13.878H132.997V14.994C132.619 15.984 131.665 16.488 130.567 16.488ZM143.282 15.876C142.94 16.146 142.49 16.272 142.022 16.272C141.158 16.272 140.69 15.768 140.69 14.832V10.26H143.264V8.46H140.69V6.264H138.44V8.46H136.856V10.26H138.44V14.886C138.44 17.01 139.646 18.126 141.752 18.126C142.562 18.126 143.372 17.91 143.912 17.478L143.282 15.876ZM154.483 13.248C154.483 10.242 152.431 8.28 149.623 8.28C146.761 8.28 144.655 10.332 144.655 13.194C144.655 16.056 146.743 18.126 149.965 18.126C151.621 18.126 152.971 17.586 153.835 16.56L152.629 15.174C151.945 15.876 151.099 16.218 150.019 16.218C148.345 16.218 147.175 15.318 146.905 13.914H154.447C154.465 13.698 154.483 13.428 154.483 13.248ZM149.623 10.08C151.099 10.08 152.161 11.034 152.341 12.42H146.887C147.103 11.016 148.165 10.08 149.623 10.08Z" fill="white"/>
<path d="M56.016 35.072C57.252 35.072 58.356 34.652 59.1 33.836L58.536 33.272C57.852 33.98 57.012 34.28 56.052 34.28C54.024 34.28 52.5 32.792 52.5 30.8C52.5 28.808 54.024 27.32 56.052 27.32C57.012 27.32 57.852 27.62 58.536 28.316L59.1 27.752C58.356 26.936 57.252 26.528 56.028 26.528C53.496 26.528 51.624 28.34 51.624 30.8C51.624 33.26 53.496 35.072 56.016 35.072ZM63.1118 35.06C64.9598 35.06 66.3158 33.716 66.3158 31.844C66.3158 29.972 64.9598 28.64 63.1118 28.64C61.2638 28.64 59.8958 29.972 59.8958 31.844C59.8958 33.716 61.2638 35.06 63.1118 35.06ZM63.1118 34.304C61.7678 34.304 60.7598 33.32 60.7598 31.844C60.7598 30.368 61.7678 29.384 63.1118 29.384C64.4558 29.384 65.4518 30.368 65.4518 31.844C65.4518 33.32 64.4558 34.304 63.1118 34.304ZM69.7472 35.06C71.3912 35.06 72.3512 34.352 72.3512 33.26C72.3512 30.836 68.2592 32.12 68.2592 30.416C68.2592 29.816 68.7632 29.372 69.9032 29.372C70.5512 29.372 71.2112 29.528 71.7632 29.912L72.1352 29.228C71.6072 28.868 70.7192 28.64 69.9032 28.64C68.2952 28.64 67.4072 29.408 67.4072 30.44C67.4072 32.936 71.4992 31.64 71.4992 33.284C71.4992 33.908 71.0072 34.316 69.8072 34.316C68.9192 34.316 68.0672 34.004 67.5632 33.608L67.1792 34.28C67.6952 34.724 68.7032 35.06 69.7472 35.06ZM76.9503 34.004C76.7103 34.22 76.3623 34.328 76.0143 34.328C75.3063 34.328 74.9223 33.92 74.9223 33.176V29.408H76.8423V28.688H74.9223V27.308H74.0703V28.688H72.9423V29.408H74.0703V33.224C74.0703 34.388 74.7303 35.06 75.9183 35.06C76.4103 35.06 76.9143 34.916 77.2503 34.616L76.9503 34.004ZM81.0093 28.64C80.0133 28.64 79.0773 28.952 78.4413 29.492L78.8253 30.128C79.3413 29.672 80.1093 29.384 80.9253 29.384C82.1013 29.384 82.7133 29.972 82.7133 31.052V31.436H80.7093C78.8973 31.436 78.2733 32.252 78.2733 33.224C78.2733 34.316 79.1493 35.06 80.5773 35.06C81.6213 35.06 82.3653 34.664 82.7493 34.016V35H83.5653V31.088C83.5653 29.456 82.6413 28.64 81.0093 28.64ZM80.7093 34.388C79.7013 34.388 79.1133 33.932 79.1133 33.2C79.1133 32.552 79.5093 32.072 80.7333 32.072H82.7133V33.104C82.3773 33.932 81.6693 34.388 80.7093 34.388ZM94.492 30.668C95.26 30.356 95.776 29.72 95.776 28.76C95.776 27.392 94.696 26.6 92.824 26.6H89.2V35H93.064C95.164 35 96.22 34.184 96.22 32.756C96.22 31.616 95.572 30.908 94.492 30.668ZM92.764 27.332C94.108 27.332 94.888 27.848 94.888 28.856C94.888 29.864 94.108 30.38 92.764 30.38H90.088V27.332H92.764ZM93.052 34.268H90.088V31.112H93.052C94.528 31.112 95.332 31.592 95.332 32.684C95.332 33.788 94.528 34.268 93.052 34.268ZM98.0669 35H98.9189V26.096H98.0669V35ZM103.498 28.64C102.502 28.64 101.566 28.952 100.93 29.492L101.314 30.128C101.83 29.672 102.598 29.384 103.414 29.384C104.59 29.384 105.202 29.972 105.202 31.052V31.436H103.198C101.386 31.436 100.762 32.252 100.762 33.224C100.762 34.316 101.638 35.06 103.066 35.06C104.11 35.06 104.854 34.664 105.238 34.016V35H106.054V31.088C106.054 29.456 105.13 28.64 103.498 28.64ZM103.198 34.388C102.19 34.388 101.602 33.932 101.602 33.2C101.602 32.552 101.998 32.072 103.222 32.072H105.202V33.104C104.866 33.932 104.158 34.388 103.198 34.388ZM111.584 28.64C110.492 28.64 109.64 29.084 109.184 29.852V28.688H108.368V35H109.22V31.688C109.22 30.248 110.072 29.408 111.428 29.408C112.628 29.408 113.324 30.092 113.324 31.424V35H114.176V31.34C114.176 29.528 113.12 28.64 111.584 28.64ZM119.128 35.06C120.196 35.06 121.096 34.628 121.6 33.812L120.964 33.38C120.532 34.016 119.86 34.304 119.128 34.304C117.748 34.304 116.74 33.332 116.74 31.844C116.74 30.368 117.748 29.384 119.128 29.384C119.86 29.384 120.532 29.684 120.964 30.32L121.6 29.888C121.096 29.06 120.196 28.64 119.128 28.64C117.244 28.64 115.876 29.96 115.876 31.844C115.876 33.728 117.244 35.06 119.128 35.06ZM125.482 28.64C124.486 28.64 123.55 28.952 122.914 29.492L123.298 30.128C123.814 29.672 124.582 29.384 125.398 29.384C126.574 29.384 127.186 29.972 127.186 31.052V31.436H125.182C123.37 31.436 122.746 32.252 122.746 33.224C122.746 34.316 123.622 35.06 125.05 35.06C126.094 35.06 126.838 34.664 127.222 34.016V35H128.038V31.088C128.038 29.456 127.114 28.64 125.482 28.64ZM125.182 34.388C124.174 34.388 123.586 33.932 123.586 33.2C123.586 32.552 123.982 32.072 125.206 32.072H127.186V33.104C126.85 33.932 126.142 34.388 125.182 34.388Z" fill="white"/>
<defs>
<clipPath id="clip0_2_417">
<rect width="40" height="40" fill="white"/>
</clipPath>
</defs>
</svg>
