<svg width="27" height="26" viewBox="0 0 27 26" fill="none" xmlns="http://www.w3.org/2000/svg">
<g clip-path="url(#clip0_2_28)">
<path d="M2.95776 20.5042C2.9582 20.5126 2.95913 20.521 2.96054 20.5293C2.99307 20.5757 3.03306 20.6157 3.06656 20.6612C3.30955 20.9919 3.5668 21.3101 3.83828 21.616C3.91265 21.6996 3.98707 21.7823 4.06329 21.8641C4.34283 22.1631 4.63604 22.4483 4.94288 22.7195C4.99959 22.7697 5.0526 22.8216 5.10932 22.8709C5.86551 23.5181 6.69351 24.0766 7.57702 24.5353C7.61238 24.5539 7.64953 24.5697 7.68582 24.5883C8.07928 24.788 8.48271 24.9676 8.89458 25.1261C8.98758 25.1595 9.07219 25.1912 9.16051 25.219C9.52683 25.3509 9.89877 25.4664 10.2763 25.5655C10.3878 25.5952 10.4994 25.6258 10.6129 25.6519C10.9848 25.7382 11.3567 25.8042 11.737 25.8581C11.8523 25.8748 11.9657 25.8971 12.082 25.911C13.0615 26.0299 14.0518 26.0299 15.0313 25.911C15.1476 25.8971 15.261 25.8748 15.3763 25.8581C15.7566 25.8042 16.1322 25.7382 16.5005 25.6519C16.6139 25.6258 16.7255 25.5952 16.8371 25.5655C17.2171 25.4664 17.5889 25.3509 17.9528 25.219C18.0458 25.1875 18.1304 25.1558 18.2187 25.1261C18.6306 24.9676 19.034 24.7881 19.4275 24.5883C19.4638 24.5697 19.5009 24.554 19.5363 24.5353C20.4228 24.077 21.2535 23.5186 22.0124 22.8709C22.0691 22.8217 22.1221 22.7697 22.1788 22.7195C22.4888 22.447 22.782 22.1619 23.0584 21.8641C23.1346 21.7823 23.2091 21.6996 23.2834 21.616C23.5556 21.3108 23.8128 20.9925 24.0552 20.6612C24.0886 20.6157 24.1286 20.5758 24.1612 20.5294C24.1654 20.5212 24.1692 20.5129 24.1723 20.5043C27.3794 16.0144 27.3794 9.9859 24.1723 5.49613C24.1692 5.48753 24.1655 5.47915 24.1612 5.47104C24.1286 5.42462 24.0887 5.38467 24.0552 5.33917C23.8128 5.00849 23.5556 4.69022 23.2834 4.3843C23.2091 4.3007 23.1346 4.21804 23.0584 4.13629C22.7782 3.83723 22.4851 3.55205 22.1788 3.28085C22.1221 3.23067 22.0691 3.1787 22.0124 3.12945C21.2562 2.48229 20.4282 1.92379 19.5447 1.46499C19.5093 1.44644 19.4722 1.43065 19.4359 1.41204C19.0424 1.21231 18.639 1.03276 18.2271 0.874222C18.1341 0.840805 18.0495 0.809185 17.9612 0.781319C17.5949 0.64945 17.2229 0.533962 16.8454 0.434856C16.7339 0.40514 16.6223 0.3745 16.5089 0.348484C16.1369 0.262114 15.765 0.196152 15.3847 0.142271C15.2694 0.125565 15.156 0.103251 15.0397 0.0893173C14.0602 -0.0295982 13.0699 -0.0295982 12.0904 0.0893173C11.9742 0.103251 11.8607 0.125565 11.7454 0.142271C11.3651 0.196152 10.9895 0.262114 10.6212 0.348484C10.5078 0.3745 10.3962 0.40514 10.2847 0.434856C9.90406 0.533907 9.53212 0.649395 9.16889 0.781319C9.0759 0.812885 8.99129 0.844505 8.90297 0.874222C8.49115 1.03276 8.08767 1.21225 7.69421 1.41204C7.65793 1.4306 7.62077 1.44638 7.58541 1.46499C6.7019 1.92384 5.8739 2.48229 5.11771 3.12945C5.06099 3.1787 5.00798 3.23067 4.95127 3.28085C4.64133 3.5527 4.34811 3.83783 4.07168 4.13629C3.99546 4.21804 3.92104 4.3007 3.84667 4.3843C3.57454 4.69022 3.31728 5.00849 3.07495 5.33917C3.0415 5.38467 3.00151 5.42462 2.96893 5.47104C2.96468 5.47915 2.96092 5.48753 2.95776 5.49613C-0.249298 9.98584 -0.249298 16.0144 2.95776 20.5042ZM4.01867 18.7468C3.12943 17.2838 2.59247 15.6346 2.45011 13.9289H8.01962C8.08783 15.0357 8.26217 16.1333 8.5403 17.2068C6.96706 17.5011 5.44427 18.0198 4.01867 18.7468ZM11.1949 23.8898C11.1428 23.8777 11.0927 23.861 11.0406 23.849C10.7077 23.7709 10.3776 23.6818 10.055 23.5703C10.0057 23.5536 9.95734 23.5341 9.90896 23.5164C9.5891 23.405 9.27393 23.2814 8.96519 23.1449C8.91125 23.1198 8.85825 23.0919 8.80431 23.0668C8.50864 22.9262 8.21979 22.7742 7.93774 22.6108L7.7518 22.4984C7.48402 22.3349 7.22366 22.16 6.97076 21.9736C6.90565 21.9262 6.8406 21.8807 6.77643 21.8287C6.52849 21.6429 6.29106 21.4438 6.0642 21.2314C6.00471 21.1775 5.94331 21.1246 5.88474 21.0689C5.64672 20.8432 5.41986 20.6045 5.20041 20.3574C5.17251 20.3249 5.14277 20.2952 5.11488 20.2645C6.37387 19.6651 7.70761 19.2371 9.08047 18.992C9.71648 20.7386 10.5566 22.404 11.5835 23.9538C11.4544 23.9306 11.3223 23.9176 11.1949 23.8898ZM17.2461 13.929C17.1728 14.934 17.0015 15.9294 16.7347 16.9012C15.6812 16.7762 14.6212 16.7142 13.5603 16.7155C12.4984 16.7158 11.4375 16.7794 10.3832 16.9059C10.1169 15.9325 9.9465 14.9355 9.87458 13.929H17.2461ZM9.87458 12.0713C9.94791 11.0663 10.1192 10.0708 10.386 9.099C11.4395 9.22401 12.4995 9.286 13.5604 9.28475C14.6222 9.28595 15.6831 9.22396 16.7375 9.099C17.0035 10.0709 17.1739 11.0663 17.2462 12.0713H9.87458ZM13.5604 23.5405C12.5022 22.0424 11.632 20.4203 10.969 18.7106C11.8297 18.6192 12.6947 18.5734 13.5604 18.5731C14.425 18.5741 15.2891 18.6203 16.149 18.7115C15.4852 20.4201 14.6159 22.0416 13.5604 23.5405ZM21.9193 20.3584C21.7008 20.6054 21.473 20.8441 21.235 21.0698C21.1764 21.1256 21.115 21.1785 21.0555 21.2324C20.8261 21.4411 20.5887 21.6402 20.3433 21.8297C20.2791 21.8789 20.214 21.9226 20.1489 21.9745C19.896 22.1603 19.6357 22.3353 19.3679 22.4993L19.182 22.6117C18.8999 22.7764 18.6111 22.9285 18.3154 23.0678C18.2615 23.0929 18.2084 23.1208 18.1545 23.1458C17.8458 23.2852 17.5306 23.4087 17.2107 23.5174C17.1624 23.535 17.1177 23.5546 17.0648 23.5713C16.7421 23.679 16.4139 23.7682 16.0792 23.8499C16.0271 23.862 15.9769 23.8787 15.9239 23.8899C15.7965 23.9177 15.6645 23.9308 15.5352 23.954C16.5625 22.4039 17.4029 20.7381 18.0392 18.9912C19.4121 19.2364 20.7459 19.6643 22.0048 20.2637C21.9769 20.2962 21.9472 20.3259 21.9193 20.3584ZM23.102 18.7468C21.6767 18.0198 20.1543 17.5011 18.5813 17.2068C18.8591 16.1333 19.0332 15.0356 19.1011 13.9289H24.6706C24.5282 15.6346 23.9912 17.2838 23.102 18.7468ZM23.102 7.25337C23.9912 8.71635 24.5282 10.3656 24.6706 12.0713H19.1011C19.0328 10.9645 18.8585 9.86687 18.5804 8.79341C20.1536 8.49914 21.6764 7.98048 23.102 7.25337ZM15.9258 2.11041C15.9778 2.12249 16.028 2.1392 16.0801 2.15128C16.413 2.22933 16.7431 2.31847 17.0657 2.42993C17.115 2.44664 17.1633 2.46618 17.2117 2.48381C17.5316 2.59527 17.8467 2.71882 18.1555 2.85537C18.2094 2.88046 18.2624 2.90832 18.3164 2.93341C18.612 3.07399 18.9009 3.22599 19.1829 3.38948L19.3689 3.50187C19.6367 3.66536 19.897 3.84028 20.1499 4.02668C20.215 4.07403 20.2801 4.11958 20.3443 4.17156C20.5922 4.35731 20.8296 4.55639 21.0565 4.76881C21.116 4.82269 21.1774 4.87564 21.2359 4.93137C21.474 5.15707 21.7008 5.39577 21.9203 5.64286C21.9482 5.67535 21.9779 5.70506 22.0058 5.73576C20.7468 6.33513 19.4131 6.76312 18.0402 7.00825C17.4042 5.26167 16.5641 3.59619 15.5372 2.04641C15.6664 2.06954 15.7984 2.08254 15.9258 2.11041ZM13.5604 2.45965C14.6185 3.95778 15.4888 5.57989 16.1517 7.28962C14.4298 7.47477 12.6929 7.47477 10.9709 7.28962L10.9718 7.28869C11.6355 5.58016 12.5047 3.9586 13.5604 2.45965ZM5.20139 5.64188C5.41991 5.39479 5.6477 5.15609 5.88572 4.93039C5.94429 4.87466 6.00569 4.82171 6.06518 4.76783C6.29455 4.55851 6.53197 4.35943 6.77741 4.17058C6.84159 4.12138 6.90664 4.07305 6.97174 4.0257C7.22464 3.83995 7.485 3.66498 7.75278 3.50089L7.93872 3.3885C8.22017 3.22441 8.50902 3.07241 8.80529 2.93243C8.85922 2.90734 8.91224 2.87948 8.96617 2.85439C9.27486 2.71506 9.59008 2.59152 9.90994 2.48283C9.95827 2.4652 10.0029 2.44566 10.0559 2.42895C10.3785 2.32119 10.7068 2.23205 11.0415 2.1503C11.0936 2.13822 11.1438 2.12151 11.1968 2.11036C11.3242 2.08249 11.4562 2.06948 11.5854 2.04624C10.5586 3.59602 9.71839 5.26151 9.08243 7.00809C7.70957 6.76296 6.37578 6.33497 5.11683 5.7356C5.14375 5.70408 5.1735 5.67437 5.20139 5.64188ZM4.01867 7.25337C5.44394 7.98037 6.9664 8.49903 8.53937 8.79341C8.26157 9.86692 8.08751 10.9645 8.01962 12.0713H2.45011C2.59253 10.3657 3.12949 8.7164 4.01867 7.25337Z" fill="#3A3C44"/>
</g>
<defs>
<clipPath id="clip0_2_28">
<rect width="26.0271" height="26" fill="white" transform="translate(26.5791 26) rotate(-180)"/>
</clipPath>
</defs>
</svg>
