<svg width="51" height="50" viewBox="0 0 51 50" fill="none" xmlns="http://www.w3.org/2000/svg">
<path d="M50.3594 25.9602C50.2517 29.111 49.5512 32.1002 48.3658 34.8201C48.231 35.1433 48.0694 35.4933 47.9078 35.8165C46.6146 38.5364 44.8095 40.987 42.6811 43.0337C37.9663 47.5579 31.4464 50.2508 24.3877 49.9815C23.6603 49.9546 22.9329 49.9007 22.2324 49.793C16.7363 49.1198 11.833 46.6692 8.06114 43.0606C5.87887 40.987 4.07379 38.5095 2.78059 35.7896C2.61894 35.4664 2.48423 35.1433 2.32258 34.7932C1.86458 33.7429 1.48739 32.6388 1.19104 31.5347C1.11021 31.2654 1.05633 30.9961 0.975503 30.6999C0.517496 28.7879 0.301964 26.7143 0.328905 24.6137C0.328905 24.4252 0.328905 24.2367 0.355847 24.0482C0.625263 17.3158 3.50801 11.3105 8.0342 6.97479C9.16575 5.8976 10.3781 4.92814 11.6983 4.06639C14.8504 1.9928 18.5414 0.619383 22.4749 0.161578C23.2831 0.0807891 24.1183 0.0269297 24.9535 0C25.4115 0 25.8426 0 26.3006 0.0269297C26.4353 0.0269297 26.57 0.0269297 26.7047 0.0538594C28.4829 0.161578 30.2341 0.430875 31.8775 0.88868C36.3229 2.10052 40.2833 4.49726 43.3816 7.7019C43.4085 7.72883 43.4085 7.72882 43.4354 7.75575C47.9616 12.4685 50.6288 18.9316 50.3594 25.9602Z" fill="#E93842"/>
<path d="M26.7312 0.0821797C26.5965 0.0821797 26.4618 0.05525 26.327 0.05525C25.869 0.0283203 25.411 0.0283203 24.98 0.0283203C24.1448 0.0283203 23.3365 0.0821797 22.5013 0.189899C18.5409 0.647703 14.8499 2.02112 11.6708 4.09471C10.3507 4.95646 9.13832 5.92593 8.00677 7.00311C3.50752 11.3388 0.597833 17.3441 0.355359 24.0765C0.355359 24.2651 0.355359 24.4536 0.328417 24.6421C0.301475 26.7426 0.517008 28.7892 0.975015 30.7551C6.49804 31.0513 12.1558 29.5433 16.9783 26.0693C17.14 25.9616 17.2747 25.8539 17.4363 25.7462C17.5441 25.6654 17.6519 25.5846 17.7596 25.5038C19.5378 24.1035 21.1004 22.5146 22.3936 20.7911C23.3096 19.5793 24.1178 18.2597 24.7644 16.9132C24.7644 16.8863 24.7914 16.8863 24.7914 16.8594C24.8183 16.8055 24.8453 16.7247 24.8722 16.6709C24.8722 16.6439 24.8991 16.617 24.8991 16.5901C24.98 16.4285 25.0339 16.2669 25.1147 16.1323C25.1416 16.0515 25.1955 15.9707 25.2224 15.8899C25.2763 15.7822 25.3302 15.6475 25.3841 15.5398C25.411 15.459 25.4649 15.3783 25.4919 15.2975C25.5188 15.2436 25.5457 15.1897 25.5457 15.1359C25.5727 15.082 25.5996 15.0282 25.5996 14.9743C25.6535 14.8666 25.6805 14.7589 25.7343 14.6242C25.7613 14.5704 25.7613 14.5434 25.7882 14.4896C25.8152 14.4357 25.8421 14.3819 25.8421 14.3011C25.9229 14.0856 25.9768 13.8971 26.0576 13.6817C26.0846 13.6278 26.0846 13.574 26.1115 13.4932C26.1923 13.2777 26.2462 13.0623 26.3001 12.8469C26.327 12.793 26.327 12.7122 26.354 12.6584C26.4348 12.3891 26.4887 12.1467 26.5695 11.8774C26.5965 11.7966 26.6234 11.6889 26.6503 11.6081C26.6773 11.5542 26.6773 11.4734 26.7042 11.4196C26.7312 11.3388 26.7312 11.258 26.7581 11.1772C26.7851 11.0964 26.7851 11.0426 26.812 10.9618C26.8928 10.5578 26.9736 10.1539 27.0545 9.74994C27.0814 9.64223 27.0814 9.53451 27.1084 9.42679C27.1353 9.18442 27.1622 8.96898 27.2161 8.72661C27.2161 8.69969 27.2161 8.69969 27.2161 8.67276C27.2161 8.6189 27.2161 8.56504 27.2431 8.51118C27.27 8.40346 27.27 8.26881 27.27 8.16109C27.5394 5.54891 27.3508 2.77515 26.7312 0.0821797Z" fill="#FDCE4D"/>
<path d="M38.9355 24.775L26.8926 14.3801L25.357 13.0605L23.8213 14.3801L11.7784 24.775C11.4012 25.0981 11.6437 25.7175 12.1286 25.7175H14.3109C14.6073 25.7175 14.8497 25.9599 14.8497 26.2561V36.9741H25.357H35.8642V26.2292C35.8642 25.9329 36.1067 25.6906 36.403 25.6906H38.5853C39.0702 25.7175 39.3127 25.0981 38.9355 24.775ZM29.4521 33.1232C29.4521 33.581 29.0749 33.958 28.6169 33.958H25.357H22.0701C21.6121 33.958 21.2349 33.581 21.2349 33.1232V32.1268C21.2349 31.669 21.6121 31.292 22.0701 31.292H25.357H28.6438C29.1018 31.292 29.479 31.669 29.479 32.1268V33.1232H29.4521ZM29.4521 27.3333C29.4521 27.7911 29.0749 28.1681 28.6169 28.1681H25.357H22.0701C21.6121 28.1681 21.2349 27.7911 21.2349 27.3333V26.3369C21.2349 25.8791 21.6121 25.5021 22.0701 25.5021H25.357H28.6438C29.1018 25.5021 29.479 25.8791 29.479 26.3369V27.3333H29.4521Z" fill="white"/>
</svg>
